<svg xmlns="http://www.w3.org/2000/svg" viewBox="0 0 60 60" width="60" height="60" fill="none"><path fill="#000" fill-rule="evenodd" d="M57.999 19.438c0 3.787-2.578 7.137-6.15 8.2a16.473 16.473 0 0 0-.528-2.656C53.941 24.742 56 21.61 56 19V0h-2v19c0 1.747-1.455 4-3 4h-.395c-2.773-5.977-9.67-9-20.605-9-10.934 0-17.83 3.023-20.604 9H9c-1.545 0-3-2.253-3-4V0H4v19c0 2.61 2.057 5.742 4.675 5.985a16.476 16.476 0 0 0-.528 2.655C4.577 26.575 2 23.225 2 19.438V0H0v19.437c0 4.825 3.387 9.072 8.015 10.235a3.35 3.35 0 0 1-.008.146c-.004.06-.007.119-.007.18 0 3.378 1.615 6.546 3.97 9.371l.002.005.003.005.022.025.023.025c.655.782 1.367 1.54 2.12 2.267l.022.023c4.167 4.03 9.5 7.165 12.838 8.913L26.997 60h2v-9.975c0-.375-.21-.72-.545-.89-2.59-1.327-8.68-4.702-13.16-9.12a28.75 28.75 0 0 1-1.054-1.095l-.027-.028a5.962 5.962 0 0 1-.184-.2C14.9 38 16.726 38 18 38c.2 0 .997.118 2.92 1.618a4.993 4.993 0 0 0 6.16 0C29.002 38.118 29.8 38 30 38c.2 0 .997.118 2.92 1.618a4.993 4.993 0 0 0 6.16 0C41.002 38.118 41.8 38 42 38c1.275 0 3.1 0 3.97.69-.07.078-.14.153-.21.228-.335.367-.688.732-1.055 1.095-4.48 4.417-10.573 7.792-13.16 9.12a1.005 1.005 0 0 0-.545.892V60h2v-9.367c3.337-1.75 8.67-4.883 12.838-8.913l.022-.023a30.571 30.571 0 0 0 2.12-2.267l.023-.025.022-.025c.003-.003.003-.005.005-.01C50.385 36.545 52 33.378 52 30c0-.062-.004-.121-.008-.18a3.418 3.418 0 0 1-.007-.148C56.612 28.51 60 24.262 60 19.438V0h-2l-.001 19.437ZM47.226 37.155C45.824 36.02 43.596 36 42 36c-1.035 0-2.393.668-4.15 2.043-1.09.85-2.61.85-3.7 0C32.392 36.668 31.034 36 30 36c-1.035 0-2.392.668-4.15 2.043-1.09.85-2.61.85-3.7 0C20.392 36.668 19.034 36 18 36c-1.597 0-3.825.02-5.227 1.155C11.097 34.918 9.999 32.5 9.999 30c0-.28.017-.546.034-.813l.014-.222c0-.006.002-.012.005-.018.002-.007.005-.013.005-.02.092-1.612.39-3.06.875-4.32 2.22-5.772 8.502-8.606 19.067-8.606s16.847 2.834 19.07 8.604c.482 1.263.78 2.71.875 4.32 0 .006.002.013.005.019a.078.078 0 0 1 .004.012v.007l.016.276c.015.25.03.5.03.761 0 2.5-1.098 4.918-2.773 7.155Z" clip-rule="evenodd"></path></svg>