<svg xmlns="http://www.w3.org/2000/svg" viewBox="0 0 50 50" width="50" height="50" fill="none"><path fill="#000" fill-rule="evenodd" d="M8.923 3.21C8.923 1.401 10.507 0 12.33 0c1.824 0 3.4 1.401 3.4 3.21 0 .4-.076.78-.215 1.128h4.623c2.439 0 4.516 1.856 4.516 4.231v18.289c0 4.396-3.748 7.89-8.566 8.68v1.727c0 .596-.396.894-.608 1.02a1.893 1.893 0 0 1-.562.223c-.366.09-.766.13-1.208.13h-.371v2.09c0 3.918 3.652 7.19 8.394 7.19 4.74 0 8.4-3.272 8.4-7.19V27.38c0-5.12 4.19-9.27 9.34-9.27 4.467 0 8.21 3.107 9.126 7.276a2.106 2.106 0 0 1 1.4 1.964v7.713c0 .815-.488 1.532-1.184 1.873v5.145a1.041 1.041 0 0 1-2.086 0v-5.038a2.106 2.106 0 0 1-1.447-1.98V27.35c0-.817.49-1.536 1.19-1.876-.832-3.053-3.626-5.284-6.998-5.284-4.04 0-7.256 3.193-7.256 7.19V40.73c0 5.198-4.768 9.27-10.485 9.27-5.718 0-10.48-4.072-10.48-9.27v-2.093h-.304c-.442 0-.838-.036-1.201-.13a1.93 1.93 0 0 1-.57-.221c-.212-.127-.607-.425-.607-1.02v-1.728C3.752 34.75 0 31.255 0 26.858V8.569c0-2.375 2.078-4.23 4.517-4.23H9.14a3.018 3.018 0 0 1-.217-1.129Zm38.992 31.846a1.04 1.04 0 0 0-.334.008h-.213V27.35h.547v7.705ZM12.36 4.338h-.058c-.773-.013-1.294-.549-1.294-1.128 0-.586.534-1.137 1.323-1.137.789 0 1.316.55 1.316 1.137 0 .58-.514 1.115-1.287 1.128Zm-.071 2.083H4.516c-1.409 0-2.432.986-2.432 2.15v2.442h20.487V8.572c0-1.165-1.023-2.151-2.432-2.151h-7.85Zm10.282 6.675H2.084v2.502h4.61c.574 0 1.042.466 1.042 1.043 0 .573-.468 1.04-1.042 1.04h-4.61v2.941h4.61c.574 0 1.043.467 1.043 1.04 0 .577-.469 1.04-1.043 1.04h-4.61v2.842h20.487V13.096ZM10.639 33.628c-4.513 0-8.024-2.698-8.5-6.001h20.377c-.476 3.302-3.987 6-8.5 6h-3.377Zm.015 2.907v-.83h3.355v.83a6.676 6.676 0 0 0-.069.008 1.642 1.642 0 0 1-.231.017h-2.762c-.098 0-.155-.008-.225-.017a4.435 4.435 0 0 0-.068-.008Z" clip-rule="evenodd"></path></svg>