<svg width="50" height="50" viewBox="0 0 50 50" fill="none" xmlns="http://www.w3.org/2000/svg"><path fill="#000" d="M48.2684 14.2851L37.9812 24.5724L29.4006 15.9918L43.6858 1.70661C44.0756 1.3168 44.0756 0.6846 43.6858 0.292353C43.296 -0.097451 42.6638 -0.097451 42.2715 0.292353L23.2809 19.283C22.8911 19.6728 22.8911 20.305 23.2809 20.6972L23.5732 20.9896L0.292353 44.2705C-0.097451 44.6603 -0.097451 45.2925 0.292353 45.6847L0.807092 46.1995C3.34077 48.7331 6.66662 50 9.99471 50C10.1596 50 10.322 49.9825 10.487 49.9775L24.9871 49.975C25.5393 49.975 25.9866 49.5277 25.9866 48.9755C25.9866 48.4233 25.5393 47.976 24.9871 47.976H16.9515C17.7411 47.4738 18.4932 46.8866 19.1829 46.1995L29.6927 35.6896C30.0825 35.2998 30.0825 34.6676 29.6927 34.2754L29.2279 33.8106C27.6687 32.2514 27.6687 29.7153 29.2279 28.1561L29.985 27.4014L33.2758 30.6922C33.4707 30.8871 33.7281 30.9846 33.983 30.9846C34.2379 30.9846 34.4952 30.8871 34.6902 30.6922L49.6828 15.6996C50.0726 15.3098 50.0726 14.6776 49.6828 14.2853C49.2905 13.8955 48.6606 13.8953 48.2684 14.2851ZM27.8161 26.744C25.5598 29.0004 25.4823 32.6235 27.5812 34.9747L17.7712 44.7847C15.7623 46.7937 13.1636 47.8482 10.5276 47.9756H9.99533C9.96534 47.9756 9.94285 47.9906 9.91537 47.9906C7.21173 47.9706 4.51314 46.9711 2.41648 44.9721L24.9873 22.4038L28.5705 25.987L27.8161 26.744ZM33.9829 28.5706L25.4024 19.9901L27.9861 17.4064L36.5666 25.9869L33.9829 28.5706Z"></path></svg>