<svg xmlns="http://www.w3.org/2000/svg" viewBox="0 0 53 60" width="53" height="60" fill="none"><path fill="#000" fill-rule="evenodd" d="M15.236 48.8a1.012 1.012 0 0 1-.884-1.5c1.515-2.733 3.262-5.61 5.288-8.715-3.874.458-6.979 1.698-9.248 3.696a1.01 1.01 0 0 1-.668.251 1.012 1.012 0 0 1-.668-1.77c2.91-2.56 6.95-4.016 12.012-4.332.388-.579.787-1.166 1.195-1.761-3.194-3.49-5.51-7.688-6.94-12.57A20.373 20.373 0 0 1 12 22.38c-.831 0-1.645-.055-2.442-.166-1.982 3.177-4.563 4.898-7.676 5.112a1.01 1.01 0 0 1-.14-2.016c2.26-.155 4.128-1.314 5.685-3.536-2.13-.59-4.121-1.607-5.962-3.052a1.01 1.01 0 0 1 1.247-1.59c3.448 2.704 7.51 3.713 12.094 3.004-1.323-5.596-1.562-12.022-.707-19.243.065-.554.567-.95 1.122-.886.553.065.95.567.886 1.122-1.699 14.365 1.053 25.38 8.182 32.74.336.345.38.881.106 1.277-3.361 4.866-6.068 9.164-8.269 13.135a1.02 1.02 0 0 1-.888.518Zm29.76-20.856a1.01 1.01 0 0 1-.941-.647c-2.487-6.46-7.697-10.312-16.892-12.496-4.598-1.067-6.475-6.008-5.146-13.557a1.019 1.019 0 0 1 1.17-.82c.55.098.915.621.82 1.17-.66 3.73-1.062 10.153 3.616 11.237 1.578.375 3.047.797 4.415 1.27 2.81-1.287 5.105-3.118 7.022-5.593a1.01 1.01 0 1 1 1.599 1.237 21.494 21.494 0 0 1-1.53 1.772c1.074.121 2 .42 2.77.896a1.01 1.01 0 0 1-.533 1.867c-.18 0-.365-.049-.53-.15-.916-.566-2.243-.77-3.953-.602-.739.57-1.516 1.088-2.331 1.555 5.743 2.517 9.355 6.208 11.387 11.485a1.01 1.01 0 0 1-.579 1.306.954.954 0 0 1-.363.07ZM37.772 60a1.011 1.011 0 0 1-.968-1.296c1.768-6.035 1.969-11.422.609-16.097a1.013 1.013 0 0 1-.047-.159 20.333 20.333 0 0 0-2.885-5.925c-.916-1.305-1.842-2.547-2.747-3.76l-.006-.01c-3.094-4.143-6.014-8.057-7.226-12.796A1.01 1.01 0 0 1 25.57 18.7c5.496.499 10.584 3.417 15.124 8.667a1.01 1.01 0 1 1-1.528 1.322c-3.816-4.414-7.842-6.968-12.267-7.772 1.288 3.714 3.702 6.948 6.446 10.624l.001.002c.919 1.23 1.859 2.492 2.787 3.814a22.407 22.407 0 0 1 3.103 6.281c2.141 1.63 3.939 3.25 5.404 4.869 3.528-.191 5.954.703 7.205 2.654.3.471.164 1.095-.305 1.397a1.035 1.035 0 0 1-.548.157c-.333 0-.658-.164-.85-.464-.664-1.034-1.956-1.616-3.852-1.73 1.35 1.842 2.279 3.693 2.8 5.572a1.013 1.013 0 0 1-.978 1.282 1.01 1.01 0 0 1-.973-.74c-.904-3.264-3.253-6.486-7.151-9.8.71 4.344.295 9.168-1.246 14.435a1.012 1.012 0 0 1-.97.729Zm-7.727-2.758a1.015 1.015 0 0 0 1.186-.792c1.573-8.044.32-13.878-3.726-17.332a1.007 1.007 0 0 0-1.411.096c-3.087 3.47-5.813 7.61-8.335 12.649a1.01 1.01 0 0 0 1.807.902c2.253-4.502 4.662-8.25 7.353-11.423 2.864 3.035 3.646 7.978 2.33 14.716a1.007 1.007 0 0 0 .796 1.184Zm5.674-6.73c-.054 0-.108-.004-.16-.01a1.013 1.013 0 0 1-.839-1.159c.542-3.372-.375-6.436-2.796-9.368a1.009 1.009 0 0 1 .136-1.422 1.01 1.01 0 0 1 1.423.136c2.773 3.358 3.862 7.05 3.234 10.973-.082.497-.51.85-.998.85ZM21.243 26.612c.188.328.527.51.879.51a1.01 1.01 0 0 0 .877-1.512c-1.894-3.32-2.968-6.597-3.193-9.742a1.02 1.02 0 0 0-1.08-.935c-.556.04-.975.525-.935 1.08.248 3.448 1.408 7.013 3.452 10.599Z" clip-rule="evenodd"></path></svg>