<svg xmlns="http://www.w3.org/2000/svg" viewBox="0 0 44 60" width="44" height="60" fill="none"><path fill="#000" d="M32.217 16.364v11.38l4.204 3.364a.91.91 0 0 1-1.136 1.42l-4.026-3.221-2.175 1.45a.909.909 0 1 1-1.008-1.513l2.322-1.549V15.892l-7.272-5.819v30.274l9.82 4.91 5.9-5.9a.91.91 0 0 1 1.286 1.286l-5.861 5.862 2.361 3.936a.909.909 0 1 1-1.558.936l-2.592-4.319-9.356-4.678v16.71a.91.91 0 1 1-1.819 0V26.55l-5.454 4.773V40c0 .19-.06.374-.17.528l-4.545 6.364a.91.91 0 1 1-1.48-1.057l4.377-6.126v-7.89H8.883l-6.666 5v5a.91.91 0 1 1-1.819 0v-5.455c0-.286.135-.556.364-.728l6.353-4.765-4.571-3.809a.909.909 0 1 1 1.164-1.397L8.909 30h5.693l5.955-5.21-8.717-3.962a.91.91 0 0 1-.418-.386L6.876 12.26a.91.91 0 1 1 1.59-.883l4.4 7.92 8.442 3.837V.909a.91.91 0 1 1 1.818 0v6.836l8.5 6.8h4.227a.91.91 0 0 1 .813.503L39.142 20h3.075a.91.91 0 1 1 0 1.818H38.58a.909.909 0 0 1-.813-.502l-2.476-4.952h-3.074Z"></path></svg>