<svg width="50" height="50" viewBox="0 0 50 50" fill="none" xmlns="http://www.w3.org/2000/svg"><path fill="#000" fill-rule="evenodd" clip-rule="evenodd" d="M-.038 3.9A3.875 3.875 0 0 1 3.837.023h42.297A3.875 3.875 0 0 1 50.009 3.9v15.909H50v26.807a3 3 0 0 1-3 3H3a3 3 0 0 1-3-3V19.807h-.038V3.9Zm48.297 0v6.376A2.989 2.989 0 0 0 47 10h-2.014V7.43a2.875 2.875 0 0 0-2.875-2.875H7.889A2.875 2.875 0 0 0 5.014 7.43V10H3c-.461 0-.898.104-1.288.29V3.9c0-1.174.951-2.126 2.125-2.126h42.297c1.173 0 2.125.952 2.125 2.125ZM6.764 10V7.43c0-.621.504-1.125 1.125-1.125h34.222c.621 0 1.125.504 1.125 1.125V10H6.764ZM47 11.75H3c-.69 0-1.25.56-1.25 1.25v33.615c0 .69.56 1.25 1.25 1.25h44c.69 0 1.25-.56 1.25-1.25V13c0-.69-.56-1.25-1.25-1.25ZM5.115 14.774v29.9h39.77v-29.9H5.115Zm-.75-1.75a1 1 0 0 0-1 1v31.4a1 1 0 0 0 1 1h41.27a1 1 0 0 0 1-1v-31.4a1 1 0 0 0-1-1H4.365Zm12.517 19.86c.204-.799.39-2.129.577-3.605l.18-1.438c.136-1.105.278-2.262.435-3.379.227-1.619.476-3.102.763-4.17.097-.366.193-.657.283-.878.04.065.085.139.131.222.316.567.674 1.412 1.064 2.479.773 2.115 1.619 4.944 2.476 7.814l.011.038c.856 2.865 1.724 5.768 2.528 7.955.4 1.088.798 2.04 1.187 2.731.193.343.406.663.645.91.219.225.59.524 1.094.524.59 0 1.03-.328 1.323-.654.293-.327.528-.75.723-1.178.393-.86.728-1.98 1.033-3.023l.073-.25c.287-.983.55-1.887.83-2.568.146-.355.274-.594.378-.734l.064.037c.134.084.3.225.497.432.396.416.816.992 1.255 1.622l.257.371c.342.495.692 1.002 1.014 1.402.202.252.423.5.655.693.205.17.558.418 1.01.418.814 0 1.331-.461 1.622-.903.23-.348.361-.753.422-.94l.021-.064a.875.875 0 1 0-1.655-.57l-.042.124c-.066.199-.118.352-.207.487a.447.447 0 0 1-.07.087 3.452 3.452 0 0 1-.392-.428c-.278-.346-.58-.782-.916-1.27l-.283-.407c-.436-.626-.924-1.304-1.424-1.828a4.481 4.481 0 0 0-.83-.706c-.298-.188-.673-.35-1.101-.35-.612 0-1.027.394-1.265.701-.252.325-.457.742-.63 1.162-.316.772-.605 1.766-.883 2.72l-.08.271c-.312 1.07-.614 2.063-.945 2.787a3.351 3.351 0 0 1-.396.692 3.8 3.8 0 0 1-.272-.425c-.318-.566-.678-1.41-1.07-2.477-.78-2.124-1.632-4.969-2.493-7.851l-.023-.08c-.848-2.838-1.706-5.708-2.497-7.873-.398-1.089-.794-2.04-1.18-2.73-.19-.343-.402-.663-.637-.91-.215-.224-.585-.527-1.092-.527-.379 0-.676.17-.88.353a2.256 2.256 0 0 0-.458.601c-.226.413-.41.954-.566 1.538-.316 1.18-.577 2.755-.805 4.38-.159 1.132-.305 2.313-.442 3.425l-.176 1.414c-.192 1.509-.365 2.721-.537 3.395-.508 1.998-1.793 3.345-4.004 4.038a.875.875 0 1 0 .523 1.67c2.742-.86 4.507-2.643 5.177-5.276Zm1.944-13.846.01.007a.046.046 0 0 1-.01-.007ZM32.7 33.585l-.007.006.007-.006Zm4.846 3.356-.008-.004a.046.046 0 0 1 .008.004Zm-9.365 3.41.005-.002a.022.022 0 0 1-.005.003Zm.288.039Z"></path></svg>