<svg xmlns="http://www.w3.org/2000/svg" viewBox="0 0 60 60" width="60" height="60" fill="none"><path fill="#000" fill-rule="evenodd" d="m10.38 38.215-1.24-1.57 6.052-4.777-5.79-2.213.716-1.868 6.901 2.64L24 24.915V22a3 3 0 0 0-3-3h-2.46A16.485 16.485 0 0 0 2 35.4V55a3 3 0 0 0 3 3h10c4.968-.005 8.995-4.033 9-9V32.56l-7.562 5.97v6.035h-2V40.11l-1.578 1.246-1.24-1.57 15.473-12.218a4.68 4.68 0 0 1 5.814 0L48.38 39.785l-1.24 1.57L44 38.876v5.687h-2v-7.266l-6-4.737V49c.005 4.968 4.033 8.995 9 9h10a3 3 0 0 0 3-3V35.4A16.484 16.484 0 0 0 41.46 19H39a3 3 0 0 0-3 3v2.915l5.09 4.019 6.485-1.211.368 1.967-4.766.89 7.683 6.065-1.24 1.57-16.835-13.29A4.662 4.662 0 0 1 31 21.242V0h2v21.242a2.677 2.677 0 0 0 1 2.095V22a5.005 5.005 0 0 1 5-5h2.46A18.49 18.49 0 0 1 60 35.4V55a5.005 5.005 0 0 1-5 5H45a11.007 11.007 0 0 1-11-11V30.981l-2.332-1.841a2.676 2.676 0 0 0-3.335 0L26 30.98v18.02a11.007 11.007 0 0 1-11 11v-.001H5a5.005 5.005 0 0 1-5-5V35.4A18.489 18.489 0 0 1 18.54 17H21a5.005 5.005 0 0 1 5 5v1.337a2.677 2.677 0 0 0 1-2.095V0h2v21.242a4.663 4.663 0 0 1-1.784 3.683L10.38 38.215Z" clip-rule="evenodd"></path></svg>